<?xml version="1.0" encoding="utf-8"?>
<!-- Generator: Adobe Illustrator 27.5.0, SVG Export Plug-In . SVG Version: 6.00 Build 0)  -->
<svg version="1.1" id="Layer_1" xmlns="http://www.w3.org/2000/svg" xmlns:xlink="http://www.w3.org/1999/xlink" x="0px" y="0px"
	 viewBox="0 0 274.896 263.846" style="enable-background:new 0 0 274.896 263.846;" xml:space="preserve">
<g>
	<g>
		<path style="fill:#FFFFFF;" d="M269.28,81.991c-0.423-2.066-0.822-4.02-1.063-5.927c-0.587-4.668-0.878-9.271-1.186-14.142
			c-0.136-2.135-0.27-4.271-0.431-6.412c-0.189-2.514-0.342-5.047-0.493-7.583c-0.249-4.178-0.508-8.497-0.936-12.716
			c-0.134-1.317-0.109-2.813-0.083-4.399c0.052-3.297,0.112-7.032-1.249-10.642c-0.756-2.012-2.204-3.459-4.133-4.155
			c-0.049-0.026-0.102-0.052-0.154-0.077c-1.484-0.704-3.227-1.061-5.178-1.061c-5.038,0-11.051,2.415-15.028,4.013
			c-0.661,0.266-1.264,0.508-1.788,0.708c-3.65,1.394-7.288,2.83-10.927,4.265c-6.015,2.373-12.233,4.825-18.372,7.026
			c-10.221,3.657-19.421,7.391-27.346,11.092c-5.098,2.379-10.455,4.21-16.127,6.149c-4.267,1.457-8.679,2.966-12.945,4.723
			c-4.815,1.981-9.638,3.924-14.453,5.863c-3.146,1.268-6.29,2.533-9.428,3.81c-0.919-0.648-1.861-1.251-2.817-1.801
			c-7.029-4.05-15.612-5.941-25.34-5.563c0.065-0.444,0.135-0.931,0.21-1.451c2.359-16.458,5.018-20.818,6.833-21.58
			c2.464-1.034,3.915-3.718,3.449-6.38c-0.438-2.506-2.533-4.349-5.117-4.481c-0.394-0.018-0.687-0.036-0.913-0.049
			c-0.414-0.025-0.691-0.038-0.923-0.038c-0.931,0-1.554,0.16-2.275,0.345c-0.213,0.055-0.482,0.124-0.924,0.233
			c-1.938,0.507-3.364,2.123-3.685,4.041c-4.759,5.159-6.53,13.348-7.89,19.632c-0.23,1.066-0.446,2.064-0.659,2.947
			c-0.735,3.051-1.313,5.981-1.723,8.753c-7.822,2.08-15.286,5.872-20.515,10.484c-1.515,1.06-2.882,2.151-4.169,3.329
			c-8.929,8.141-12.823,18.505-10.842,28.351c-4.215,1.972-8.113,3.683-11.831,5.193c-1.24,0.504-2.611,1.012-4.063,1.548
			c-7.138,2.64-16.021,5.924-20.556,13.175c-2.416,3.869-3.499,7.72-3.411,12.122c0.057,2.727,0.807,5.183,1.648,7.439
			c0.355,1.874,0.803,3.69,1.238,5.452l0.3,1.223c0.648,2.66,0.507,5.71,0.356,8.936c-0.117,2.525-0.239,5.135,0,7.803
			c0.199,2.258,0.75,4.393,1.638,6.364l0.064,1.395c0.145,3.165,0.297,6.439,0.491,9.627c0.259,4.215,0.638,8.463,1.005,12.57
			c0.199,2.24,0.399,4.481,0.581,6.72c0.178,2.214,0.197,4.507,0.217,6.936c0.035,4.186,0.071,8.512,0.951,12.812
			c1.06,5.202,2.488,10.477,4.246,15.67c1.994,5.914,5.906,7.898,9.691,9.814l0.566,0.288c3.778,1.928,8.209,2.03,12.117,2.121
			c1.557,0.036,3.025,0.07,4.221,0.218l2.85,0.349c6.948,0.845,13.51,1.643,20.025,3.169c2.74,0.642,5.477,1.302,8.213,1.962
			c9.416,2.27,19.152,4.617,28.979,6.214l0.242,0.04c3.704,0.603,8.775,1.431,13.867,1.431c2.613,0,4.949-0.211,7.086-0.642
			c1.319,0.397,2.689,0.599,4.093,0.599h0.001c7.518,0,14.117-5.641,18.936-9.758l0.135-0.115
			c6.595-5.638,11.333-12.153,15.915-18.454c2.017-2.772,4.102-5.641,6.314-8.385c6.465-8.018,13.85-15.639,20.99-23.009
			c12.448-12.848,25.321-26.133,34.448-42.488c2.229-3.998,4.121-8.091,5.951-12.05c3.742-8.093,7.276-15.735,13.269-21.938
			c3.669-3.794,6.312-7.867,8.869-11.805c0.739-1.138,1.483-2.286,2.262-3.441c0.611-0.906,1.447-1.857,2.332-2.865
			c2.6-2.959,5.835-6.639,5.865-12.152C270.799,89.414,270.026,85.641,269.28,81.991z"/>
		<path style="fill:#F1F1F1;" d="M268.673,80.998c-0.422-2.066-0.821-4.019-1.063-5.927c-0.587-4.668-0.877-9.27-1.185-14.143
			c-0.135-2.133-0.271-4.271-0.432-6.411c-0.19-2.513-0.34-5.047-0.492-7.584c-0.25-4.177-0.508-8.495-0.938-12.715
			c-0.134-1.316-0.108-2.813-0.083-4.399c0.053-3.297,0.112-7.032-1.249-10.641c-0.756-2.014-2.204-3.46-4.132-4.156
			c-0.05-0.025-0.102-0.052-0.155-0.077c-1.477-0.72-3.227-1.061-5.178-1.061c-5.038,0-11.051,2.415-15.027,4.013
			c-0.662,0.267-1.265,0.507-1.789,0.709c-3.65,1.393-7.286,2.829-10.927,4.265c-6.015,2.372-12.233,4.825-18.371,7.025
			c-10.22,3.657-19.421,7.39-27.346,11.093c-5.098,2.378-10.454,4.209-16.128,6.147c-4.266,1.458-8.679,2.965-12.945,4.723
			c-4.814,1.982-9.637,3.923-14.453,5.864c-3.145,1.267-6.291,2.533-9.428,3.809c-0.919-0.647-1.86-1.25-2.816-1.802
			c-7.029-4.049-15.613-5.94-25.341-5.562c0.065-0.444,0.136-0.931,0.21-1.452c2.359-16.456,5.017-20.817,6.834-21.579
			c2.463-1.034,3.914-3.718,3.449-6.379c-0.438-2.508-2.533-4.357-5.117-4.482c-0.395-0.02-0.687-0.036-0.914-0.05
			c-0.414-0.025-0.69-0.038-0.923-0.038c-0.931,0-1.553,0.16-2.276,0.346c-0.211,0.055-0.482,0.12-0.923,0.231
			c-1.942,0.491-3.363,2.123-3.685,4.041c-4.76,5.16-6.53,13.348-7.889,19.632c-0.229,1.067-0.446,2.063-0.659,2.947
			c-0.736,3.052-1.314,5.982-1.723,8.754c-7.823,2.078-15.287,5.871-20.516,10.484c-1.514,1.06-2.88,2.15-4.169,3.327
			c-8.929,8.143-12.821,18.505-10.841,28.353c-4.216,1.97-8.114,3.682-11.832,5.192c-1.24,0.504-2.61,1.012-4.063,1.548
			c-7.138,2.64-16.019,5.924-20.555,13.176c-2.415,3.868-3.499,7.718-3.412,12.122c0.058,2.727,0.809,5.183,1.647,7.438
			c0.355,1.874,0.804,3.69,1.238,5.453l0.3,1.222c0.649,2.661,0.507,5.709,0.357,8.938c-0.116,2.524-0.238,5.134,0,7.803
			c0.2,2.257,0.75,4.393,1.638,6.363l0.064,1.395c0.146,3.165,0.297,6.439,0.493,9.627c0.257,4.216,0.637,8.463,1.003,12.57
			c0.199,2.24,0.399,4.48,0.582,6.72c0.178,2.214,0.197,4.507,0.217,6.936c0.034,4.186,0.07,8.512,0.95,12.813
			c1.06,5.201,2.49,10.475,4.246,15.67c1.995,5.912,5.906,7.896,9.691,9.815l0.567,0.287c3.777,1.928,8.208,2.03,12.117,2.121
			c1.556,0.035,3.024,0.07,4.222,0.219l2.848,0.349c6.948,0.844,13.511,1.642,20.025,3.167c2.74,0.643,5.479,1.303,8.213,1.963
			c9.416,2.268,19.153,4.618,28.979,6.214l0.243,0.04c3.703,0.604,8.776,1.432,13.866,1.432c2.614,0,4.949-0.212,7.087-0.643
			c1.318,0.397,2.688,0.599,4.091,0.599h0.002c7.519,0,14.117-5.64,18.938-9.759l0.133-0.113
			c6.596-5.64,11.334-12.153,15.915-18.456c2.018-2.772,4.102-5.639,6.314-8.383c6.464-8.018,13.849-15.64,20.99-23.01
			c12.447-12.848,25.32-26.133,34.447-42.488c2.229-3.998,4.122-8.091,5.951-12.049c3.741-8.093,7.276-15.737,13.271-21.938
			c3.668-3.793,6.311-7.866,8.867-11.806c0.74-1.137,1.483-2.284,2.263-3.44c0.611-0.905,1.447-1.858,2.333-2.865
			c2.599-2.958,5.834-6.639,5.864-12.151C270.191,88.422,269.42,84.647,268.673,80.998z"/>
		<path style="fill:#E2E2E2;" d="M268.066,80.006c-0.422-2.066-0.822-4.02-1.063-5.927c-0.586-4.668-0.877-9.271-1.185-14.142
			c-0.135-2.135-0.271-4.271-0.432-6.412c-0.189-2.514-0.341-5.047-0.492-7.583c-0.249-4.178-0.508-8.497-0.938-12.716
			c-0.133-1.317-0.107-2.814-0.083-4.399c0.053-3.297,0.113-7.032-1.248-10.642c-0.756-2.012-2.205-3.459-4.132-4.155
			c-0.052-0.026-0.102-0.052-0.156-0.077c-1.482-0.709-3.226-1.061-5.179-1.061c-5.037,0-11.05,2.415-15.026,4.013
			c-0.661,0.266-1.265,0.507-1.789,0.708c-3.649,1.393-7.288,2.829-10.927,4.265c-6.014,2.373-12.233,4.825-18.371,7.025
			c-10.221,3.658-19.421,7.391-27.346,11.093c-5.099,2.379-10.455,4.21-16.127,6.147c-4.267,1.458-8.679,2.967-12.945,4.724
			c-4.815,1.981-9.639,3.924-14.454,5.863c-3.146,1.268-6.289,2.533-9.428,3.81c-0.919-0.648-1.86-1.251-2.817-1.801
			c-7.028-4.05-15.611-5.941-25.339-5.563c0.066-0.444,0.134-0.931,0.209-1.451c2.358-16.458,5.018-20.818,6.835-21.58
			c2.463-1.034,3.914-3.718,3.447-6.38c-0.438-2.506-2.532-4.356-5.117-4.481c-0.394-0.019-0.686-0.036-0.913-0.049
			c-0.413-0.025-0.691-0.038-0.922-0.038c-0.932,0-1.554,0.16-2.275,0.345c-0.214,0.055-0.484,0.12-0.925,0.232
			c-1.942,0.491-3.364,2.122-3.684,4.041c-4.76,5.159-6.531,13.348-7.891,19.632c-0.229,1.066-0.445,2.063-0.658,2.947
			c-0.735,3.051-1.313,5.981-1.723,8.753c-7.822,2.079-15.287,5.871-20.514,10.484c-1.515,1.061-2.882,2.151-4.17,3.329
			c-8.93,8.141-12.823,18.505-10.843,28.351c-4.215,1.972-8.113,3.682-11.829,5.193c-1.242,0.504-2.613,1.012-4.065,1.548
			c-7.139,2.64-16.021,5.924-20.557,13.175c-2.414,3.869-3.498,7.72-3.411,12.122c0.058,2.728,0.808,5.184,1.649,7.439
			c0.354,1.873,0.803,3.69,1.237,5.452l0.301,1.223c0.648,2.66,0.506,5.71,0.355,8.937c-0.118,2.524-0.238,5.135,0,7.803
			c0.2,2.258,0.75,4.394,1.638,6.364l0.065,1.395c0.146,3.166,0.297,6.44,0.492,9.628c0.259,4.215,0.638,8.463,1.004,12.57
			c0.2,2.24,0.399,4.48,0.581,6.72c0.179,2.214,0.198,4.507,0.218,6.936c0.035,4.185,0.07,8.511,0.951,12.812
			c1.059,5.202,2.489,10.477,4.245,15.67c1.995,5.914,5.906,7.897,9.69,9.814l0.566,0.288c3.779,1.928,8.209,2.03,12.117,2.121
			c1.557,0.036,3.026,0.07,4.222,0.218l2.85,0.349c6.948,0.845,13.51,1.643,20.023,3.169c2.742,0.642,5.479,1.301,8.214,1.961
			c9.416,2.271,19.153,4.618,28.979,6.215l0.242,0.039c3.704,0.604,8.775,1.432,13.867,1.432c2.613,0,4.949-0.211,7.086-0.643
			c1.318,0.398,2.688,0.599,4.093,0.599h0.002c7.517,0,14.116-5.64,18.935-9.758l0.135-0.114
			c6.595-5.638,11.332-12.153,15.915-18.454c2.017-2.773,4.102-5.641,6.314-8.385c6.463-8.018,13.848-15.64,20.989-23.009
			c12.448-12.848,25.32-26.134,34.447-42.489c2.229-3.997,4.121-8.09,5.951-12.049c3.742-8.093,7.276-15.736,13.27-21.938
			c3.668-3.794,6.311-7.867,8.868-11.805c0.739-1.138,1.483-2.286,2.264-3.441c0.609-0.906,1.446-1.858,2.331-2.866
			c2.601-2.958,5.834-6.638,5.863-12.151C269.585,87.429,268.814,83.655,268.066,80.006z"/>
		<path style="fill:#D4D4D4;" d="M267.459,79.014c-0.422-2.067-0.821-4.02-1.063-5.928c-0.585-4.668-0.877-9.271-1.185-14.142
			c-0.136-2.134-0.271-4.272-0.432-6.412c-0.189-2.513-0.341-5.047-0.492-7.583c-0.249-4.177-0.508-8.497-0.936-12.716
			c-0.135-1.316-0.11-2.813-0.084-4.399c0.053-3.296,0.112-7.032-1.249-10.642c-0.755-2.012-2.204-3.459-4.131-4.155
			c-0.052-0.025-0.104-0.051-0.156-0.077c-1.482-0.708-3.226-1.061-5.178-1.061c-5.039,0-11.05,2.416-15.028,4.013
			c-0.661,0.266-1.264,0.508-1.789,0.709c-3.648,1.392-7.287,2.828-10.926,4.264c-6.015,2.373-12.232,4.826-18.372,7.025
			c-10.219,3.658-19.42,7.392-27.346,11.094c-5.098,2.378-10.455,4.209-16.127,6.148c-4.267,1.458-8.679,2.966-12.945,4.722
			c-4.816,1.982-9.638,3.924-14.453,5.865c-3.146,1.267-6.289,2.532-9.429,3.809c-0.918-0.648-1.859-1.25-2.817-1.801
			c-7.027-4.05-15.611-5.941-25.338-5.563c0.064-0.444,0.134-0.931,0.208-1.452c2.36-16.457,5.019-20.817,6.834-21.578
			c2.464-1.035,3.916-3.72,3.449-6.38c-0.438-2.508-2.533-4.356-5.117-4.481c-0.394-0.02-0.688-0.036-0.913-0.05
			c-0.414-0.025-0.691-0.038-0.922-0.038c-0.933,0-1.555,0.159-2.275,0.345c-0.214,0.056-0.485,0.121-0.926,0.232
			c-1.942,0.49-3.363,2.124-3.684,4.042c-4.759,5.16-6.53,13.348-7.89,19.632c-0.229,1.067-0.445,2.063-0.658,2.947
			c-0.735,3.051-1.313,5.982-1.723,8.754c-7.823,2.078-15.288,5.871-20.516,10.484c-1.514,1.06-2.88,2.151-4.168,3.328
			c-8.93,8.142-12.823,18.504-10.844,28.351c-4.213,1.972-8.113,3.683-11.83,5.193c-1.24,0.503-2.611,1.012-4.063,1.547
			c-7.138,2.641-16.021,5.925-20.555,13.177c-2.417,3.868-3.501,7.719-3.411,12.121c0.056,2.728,0.806,5.185,1.646,7.439
			c0.355,1.874,0.804,3.69,1.239,5.453l0.3,1.223c0.648,2.66,0.508,5.709,0.355,8.936c-0.117,2.525-0.237,5.135,0,7.804
			c0.2,2.257,0.751,4.394,1.639,6.363l0.065,1.395c0.146,3.166,0.295,6.439,0.49,9.627c0.26,4.216,0.639,8.463,1.004,12.57
			c0.201,2.24,0.4,4.48,0.582,6.72c0.178,2.214,0.197,4.507,0.217,6.936c0.035,4.186,0.071,8.512,0.951,12.812
			c1.06,5.202,2.488,10.477,4.245,15.669c1.994,5.915,5.907,7.898,9.69,9.816l0.566,0.288c3.779,1.926,8.21,2.028,12.118,2.12
			c1.556,0.035,3.025,0.07,4.221,0.217l2.85,0.35c6.947,0.845,13.51,1.643,20.025,3.169c2.74,0.643,5.477,1.302,8.213,1.962
			c9.416,2.27,19.152,4.618,28.979,6.213l0.243,0.04c3.703,0.605,8.774,1.433,13.866,1.433c2.614,0,4.948-0.212,7.087-0.642
			c1.318,0.397,2.688,0.599,4.093,0.599l0,0c7.518,0,14.118-5.64,18.936-9.758l0.134-0.114c6.595-5.639,11.333-12.154,15.916-18.455
			c2.016-2.773,4.102-5.64,6.313-8.385c6.464-8.018,13.849-15.639,20.991-23.009c12.447-12.848,25.32-26.133,34.446-42.489
			c2.229-3.997,4.122-8.09,5.952-12.049c3.741-8.092,7.276-15.735,13.269-21.938c3.668-3.795,6.313-7.867,8.87-11.805
			c0.737-1.139,1.483-2.286,2.262-3.441c0.61-0.906,1.447-1.857,2.332-2.865c2.6-2.959,5.833-6.639,5.863-12.151
			C268.978,86.436,268.206,82.662,267.459,79.014z"/>
		<path style="fill:#C5C5C5;" d="M266.853,78.021c-0.423-2.067-0.822-4.02-1.063-5.927c-0.586-4.668-0.877-9.27-1.185-14.142
			c-0.136-2.135-0.27-4.271-0.431-6.412c-0.189-2.514-0.342-5.048-0.493-7.583c-0.249-4.178-0.508-8.497-0.937-12.717
			c-0.134-1.316-0.109-2.813-0.083-4.398c0.054-3.297,0.112-7.032-1.249-10.642c-0.756-2.012-2.204-3.46-4.132-4.156
			c-0.05-0.025-0.103-0.051-0.154-0.076c-1.481-0.715-3.227-1.062-5.179-1.062c-5.039,0-11.051,2.416-15.028,4.013
			c-0.661,0.267-1.264,0.508-1.789,0.709c-3.649,1.394-7.287,2.829-10.927,4.265c-6.014,2.373-12.232,4.825-18.371,7.025
			c-10.22,3.658-19.42,7.391-27.346,11.093c-5.098,2.379-10.455,4.21-16.127,6.147c-4.267,1.458-8.679,2.966-12.945,4.724
			c-4.815,1.981-9.638,3.924-14.453,5.863c-3.145,1.268-6.29,2.533-9.429,3.809c-0.919-0.647-1.86-1.25-2.815-1.801
			c-7.03-4.049-15.613-5.94-25.341-5.562c0.065-0.444,0.135-0.931,0.209-1.451c2.36-16.458,5.019-20.818,6.834-21.58
			c2.464-1.034,3.915-3.718,3.449-6.38c-0.438-2.507-2.532-4.357-5.116-4.482c-0.396-0.018-0.688-0.036-0.914-0.049
			c-0.415-0.026-0.69-0.038-0.923-0.038c-0.931,0-1.554,0.16-2.275,0.345c-0.213,0.055-0.484,0.12-0.925,0.233
			c-1.941,0.491-3.363,2.122-3.684,4.041c-4.759,5.159-6.53,13.348-7.889,19.632c-0.231,1.066-0.445,2.063-0.659,2.946
			c-0.736,3.052-1.313,5.982-1.725,8.754c-7.821,2.079-15.287,5.871-20.514,10.484c-1.514,1.061-2.881,2.151-4.169,3.329
			c-8.928,8.141-12.823,18.505-10.842,28.351c-4.215,1.971-8.114,3.682-11.831,5.192c-1.241,0.504-2.61,1.012-4.063,1.548
			c-7.137,2.641-16.021,5.925-20.556,13.176c-2.416,3.869-3.499,7.72-3.411,12.122c0.058,2.728,0.808,5.184,1.648,7.439
			c0.355,1.873,0.803,3.69,1.237,5.452l0.301,1.223c0.647,2.66,0.508,5.709,0.356,8.936c-0.118,2.524-0.239,5.135,0,7.803
			c0.2,2.258,0.75,4.393,1.639,6.364l0.064,1.395c0.145,3.166,0.296,6.439,0.491,9.627c0.259,4.216,0.638,8.463,1.004,12.57
			c0.2,2.24,0.4,4.48,0.582,6.721c0.178,2.213,0.197,4.507,0.218,6.936c0.034,4.185,0.07,8.511,0.951,12.812
			c1.059,5.201,2.487,10.476,4.245,15.67c1.993,5.914,5.905,7.898,9.69,9.815l0.566,0.288c3.778,1.928,8.21,2.03,12.118,2.121
			c1.556,0.036,3.024,0.07,4.22,0.218l2.85,0.349c6.948,0.845,13.511,1.643,20.025,3.168c2.74,0.643,5.478,1.302,8.212,1.962
			c9.416,2.27,19.152,4.618,28.98,6.215l0.242,0.039c3.703,0.604,8.774,1.432,13.866,1.432c2.613,0,4.948-0.211,7.087-0.643
			c1.318,0.398,2.689,0.599,4.092,0.599h0.001c7.518,0,14.116-5.64,18.936-9.758l0.135-0.114
			c6.595-5.638,11.333-12.153,15.915-18.455c2.017-2.772,4.102-5.64,6.313-8.384c6.464-8.018,13.849-15.64,20.99-23.009
			c12.448-12.848,25.32-26.134,34.447-42.489c2.23-3.997,4.123-8.09,5.953-12.049c3.74-8.093,7.274-15.736,13.269-21.938
			c3.667-3.794,6.312-7.867,8.868-11.805c0.737-1.138,1.483-2.286,2.263-3.441c0.61-0.906,1.445-1.858,2.332-2.866
			c2.6-2.958,5.834-6.638,5.863-12.151C268.372,85.443,267.6,81.669,266.853,78.021z"/>
		<path style="fill:#B7B7B7;" d="M266.247,77.027c-0.423-2.066-0.823-4.019-1.063-5.926c-0.586-4.668-0.878-9.271-1.186-14.143
			c-0.136-2.133-0.27-4.271-0.431-6.411c-0.189-2.514-0.342-5.048-0.494-7.584c-0.248-4.177-0.506-8.497-0.934-12.716
			c-0.135-1.316-0.109-2.813-0.083-4.399c0.052-3.296,0.111-7.032-1.25-10.642c-0.756-2.012-2.204-3.459-4.132-4.155
			c-0.05-0.025-0.103-0.052-0.155-0.077c-1.482-0.708-3.227-1.061-5.178-1.061c-5.038,0-11.051,2.415-15.028,4.013
			c-0.661,0.267-1.264,0.508-1.788,0.708c-3.65,1.395-7.288,2.831-10.927,4.265c-6.015,2.374-12.233,4.826-18.372,7.027
			c-10.22,3.656-19.42,7.391-27.345,11.092c-5.099,2.378-10.455,4.209-16.128,6.147c-4.267,1.458-8.68,2.966-12.945,4.723
			c-4.815,1.982-9.638,3.925-14.453,5.864c-3.145,1.268-6.29,2.532-9.428,3.809c-0.92-0.648-1.86-1.25-2.817-1.8
			c-7.028-4.051-15.612-5.941-25.34-5.563c0.065-0.445,0.135-0.93,0.21-1.451c2.359-16.459,5.018-20.819,6.833-21.581
			c2.465-1.034,3.915-3.717,3.449-6.378c-0.438-2.507-2.532-4.36-5.117-4.483c-0.394-0.019-0.687-0.035-0.913-0.049
			c-0.414-0.025-0.691-0.038-0.924-0.038c-0.93,0-1.553,0.16-2.273,0.345c-0.214,0.056-0.484,0.121-0.925,0.232
			c-1.943,0.489-3.364,2.123-3.685,4.041c-4.759,5.16-6.53,13.348-7.89,19.632c-0.23,1.066-0.445,2.063-0.658,2.947
			c-0.737,3.051-1.313,5.981-1.723,8.754c-7.823,2.08-15.287,5.871-20.516,10.484c-1.514,1.06-2.881,2.151-4.168,3.328
			c-8.93,8.141-12.824,18.506-10.843,28.352c-4.215,1.971-8.113,3.682-11.831,5.193c-1.24,0.503-2.611,1.011-4.064,1.548
			c-7.138,2.639-16.021,5.923-20.556,13.175c-2.415,3.868-3.499,7.72-3.41,12.122c0.056,2.727,0.806,5.184,1.646,7.438
			c0.356,1.874,0.803,3.691,1.239,5.452l0.299,1.225c0.648,2.658,0.507,5.708,0.356,8.936c-0.117,2.523-0.239,5.133,0,7.802
			c0.2,2.258,0.75,4.393,1.638,6.363l0.064,1.396c0.146,3.166,0.297,6.439,0.491,9.626c0.259,4.215,0.638,8.463,1.005,12.57
			c0.2,2.24,0.399,4.48,0.581,6.72c0.179,2.215,0.197,4.507,0.217,6.936c0.035,4.186,0.071,8.513,0.951,12.813
			c1.06,5.201,2.488,10.476,4.246,15.669c1.994,5.914,5.906,7.897,9.691,9.815l0.566,0.287c3.778,1.929,8.209,2.031,12.117,2.121
			c1.557,0.037,3.025,0.071,4.221,0.218l2.851,0.35c6.947,0.845,13.51,1.642,20.024,3.168c2.74,0.643,5.478,1.302,8.214,1.963
			c9.415,2.27,19.151,4.617,28.978,6.213l0.242,0.04c3.704,0.604,8.776,1.431,13.867,1.431c2.614,0,4.949-0.211,7.087-0.642
			c1.318,0.398,2.688,0.599,4.093,0.599l0,0c7.518,0,14.118-5.641,18.937-9.757l0.134-0.116
			c6.595-5.638,11.333-12.153,15.915-18.454c2.017-2.771,4.101-5.64,6.313-8.385c6.465-8.017,13.85-15.639,20.99-23.008
			c12.448-12.849,25.322-26.133,34.448-42.489c2.229-3.997,4.121-8.091,5.95-12.049c3.743-8.093,7.277-15.735,13.27-21.938
			c3.669-3.793,6.313-7.866,8.869-11.805c0.739-1.137,1.484-2.286,2.263-3.44c0.61-0.905,1.447-1.858,2.332-2.866
			c2.599-2.958,5.833-6.639,5.864-12.151C267.767,84.45,266.993,80.677,266.247,77.027z"/>
		<path style="fill:#A8A8A8;" d="M265.64,76.035c-0.421-2.067-0.821-4.02-1.063-5.927c-0.587-4.669-0.877-9.271-1.186-14.143
			c-0.134-2.134-0.268-4.271-0.431-6.412c-0.189-2.513-0.34-5.048-0.492-7.582c-0.249-4.178-0.508-8.497-0.938-12.717
			c-0.133-1.316-0.108-2.813-0.083-4.399c0.053-3.297,0.113-7.033-1.248-10.642c-0.757-2.013-2.204-3.46-4.133-4.156
			c-0.049-0.025-0.102-0.051-0.155-0.076c-1.482-0.709-3.227-1.061-5.178-1.061c-5.038,0-11.051,2.416-15.027,4.013
			c-0.662,0.267-1.265,0.508-1.789,0.709c-3.65,1.394-7.287,2.829-10.928,4.265c-6.014,2.373-12.232,4.825-18.37,7.025
			c-10.22,3.657-19.421,7.391-27.346,11.093c-5.099,2.379-10.454,4.209-16.127,6.147c-4.266,1.459-8.68,2.967-12.945,4.725
			c-4.815,1.981-9.637,3.923-14.453,5.863c-3.146,1.268-6.291,2.533-9.429,3.809c-0.919-0.648-1.861-1.25-2.817-1.801
			c-7.028-4.049-15.612-5.941-25.339-5.562c0.064-0.444,0.134-0.931,0.21-1.452c2.358-16.457,5.017-20.817,6.833-21.579
			c2.463-1.034,3.914-3.718,3.448-6.38c-0.438-2.507-2.533-4.356-5.117-4.481c-0.394-0.019-0.686-0.036-0.913-0.05
			c-0.414-0.025-0.691-0.037-0.923-0.037c-0.931,0-1.553,0.16-2.275,0.345c-0.213,0.055-0.484,0.12-0.925,0.231
			c-1.942,0.492-3.363,2.123-3.684,4.041c-4.76,5.16-6.531,13.349-7.891,19.633c-0.229,1.066-0.445,2.063-0.658,2.945
			c-0.736,3.053-1.313,5.983-1.723,8.755c-7.823,2.079-15.288,5.871-20.516,10.484c-1.513,1.06-2.88,2.151-4.169,3.329
			c-8.929,8.141-12.821,18.505-10.842,28.351c-4.215,1.971-8.112,3.682-11.83,5.192c-1.241,0.504-2.612,1.012-4.064,1.548
			c-7.138,2.641-16.019,5.925-20.555,13.176c-2.415,3.869-3.499,7.72-3.412,12.122c0.057,2.728,0.808,5.184,1.647,7.44
			c0.356,1.873,0.804,3.69,1.238,5.452l0.301,1.223c0.648,2.66,0.506,5.709,0.356,8.937c-0.116,2.524-0.238,5.134,0,7.803
			c0.2,2.257,0.75,4.394,1.638,6.363l0.064,1.395c0.147,3.166,0.298,6.439,0.493,9.627c0.257,4.216,0.636,8.463,1.004,12.57
			c0.198,2.24,0.398,4.48,0.581,6.72c0.179,2.214,0.197,4.508,0.217,6.936c0.035,4.185,0.07,8.511,0.95,12.812
			c1.06,5.201,2.49,10.476,4.246,15.67c1.995,5.913,5.906,7.897,9.69,9.814l0.566,0.288c3.778,1.928,8.209,2.03,12.117,2.121
			c1.558,0.036,3.026,0.069,4.222,0.218l2.849,0.349c6.949,0.845,13.513,1.643,20.025,3.168c2.741,0.643,5.478,1.302,8.213,1.962
			c9.416,2.27,19.153,4.618,28.979,6.214l0.243,0.04c3.703,0.605,8.774,1.432,13.867,1.432c2.613,0,4.948-0.211,7.086-0.643
			c1.318,0.398,2.689,0.599,4.092,0.599h0.001c7.519,0,14.117-5.64,18.938-9.758l0.134-0.114
			c6.595-5.639,11.333-12.153,15.914-18.455c2.018-2.772,4.102-5.64,6.314-8.384c6.464-8.018,13.85-15.64,20.99-23.009
			c12.448-12.849,25.32-26.134,34.447-42.489c2.229-3.997,4.121-8.091,5.951-12.049c3.742-8.093,7.277-15.736,13.27-21.938
			c3.668-3.794,6.312-7.867,8.868-11.806c0.738-1.138,1.483-2.285,2.265-3.441c0.609-0.905,1.445-1.857,2.332-2.865
			c2.598-2.958,5.833-6.639,5.863-12.151C267.158,83.458,266.387,79.684,265.64,76.035z"/>
		<path style="fill:#9A9A9A;" d="M265.033,75.042c-0.423-2.066-0.823-4.019-1.063-5.927c-0.586-4.668-0.879-9.269-1.185-14.142
			c-0.136-2.135-0.271-4.271-0.432-6.412c-0.189-2.513-0.342-5.047-0.492-7.583c-0.249-4.178-0.508-8.497-0.936-12.716
			c-0.135-1.316-0.109-2.813-0.084-4.399c0.053-3.296,0.113-7.032-1.248-10.642c-0.756-2.012-2.204-3.459-4.132-4.155
			c-0.052-0.025-0.102-0.052-0.156-0.077c-1.482-0.708-3.226-1.06-5.179-1.06c-5.037,0-11.05,2.415-15.027,4.013
			c-0.662,0.266-1.264,0.508-1.788,0.708c-3.649,1.394-7.287,2.83-10.927,4.265c-6.015,2.373-12.232,4.825-18.371,7.026
			c-10.22,3.657-19.422,7.391-27.346,11.092c-5.099,2.379-10.456,4.21-16.129,6.148c-4.265,1.458-8.677,2.966-12.944,4.723
			c-4.815,1.981-9.638,3.924-14.454,5.863c-3.145,1.268-6.288,2.533-9.427,3.81c-0.919-0.648-1.86-1.251-2.817-1.801
			c-7.028-4.05-15.611-5.941-25.34-5.563c0.066-0.444,0.135-0.931,0.209-1.451c2.36-16.458,5.019-20.818,6.835-21.58
			c2.464-1.034,3.915-3.718,3.448-6.38c-0.438-2.506-2.532-4.356-5.116-4.481c-0.395-0.019-0.688-0.036-0.914-0.049
			c-0.414-0.025-0.692-0.038-0.922-0.038c-0.932,0-1.554,0.16-2.275,0.345c-0.215,0.055-0.484,0.12-0.925,0.232
			c-1.942,0.491-3.363,2.123-3.684,4.041c-4.76,5.159-6.531,13.348-7.89,19.632c-0.232,1.066-0.445,2.064-0.659,2.947
			c-0.735,3.051-1.313,5.981-1.723,8.754c-7.822,2.079-15.287,5.871-20.516,10.484c-1.514,1.06-2.88,2.15-4.168,3.328
			c-8.93,8.141-12.823,18.505-10.843,28.351c-4.214,1.972-8.114,3.683-11.831,5.193c-1.24,0.504-2.611,1.012-4.064,1.548
			c-7.137,2.64-16.019,5.924-20.555,13.175c-2.415,3.869-3.499,7.72-3.411,12.123c0.058,2.727,0.808,5.183,1.647,7.438
			c0.356,1.874,0.805,3.69,1.239,5.452l0.3,1.224c0.648,2.659,0.508,5.709,0.356,8.936c-0.117,2.524-0.238,5.134,0,7.802
			c0.2,2.258,0.751,4.394,1.638,6.364l0.064,1.395c0.146,3.165,0.296,6.44,0.491,9.627c0.26,4.215,0.639,8.463,1.004,12.57
			c0.201,2.24,0.4,4.48,0.583,6.72c0.177,2.214,0.196,4.507,0.217,6.936c0.034,4.186,0.07,8.512,0.951,12.812
			c1.059,5.202,2.488,10.477,4.245,15.67c1.994,5.914,5.906,7.898,9.69,9.815l0.566,0.288c3.779,1.928,8.209,2.03,12.118,2.121
			c1.555,0.036,3.025,0.07,4.221,0.218l2.85,0.349c6.947,0.845,13.511,1.643,20.024,3.169c2.74,0.642,5.478,1.302,8.213,1.962
			c9.416,2.27,19.151,4.617,28.979,6.214l0.242,0.04c3.704,0.604,8.775,1.431,13.867,1.431c2.613,0,4.947-0.211,7.086-0.642
			c1.319,0.397,2.689,0.599,4.093,0.599l0,0c7.518,0,14.118-5.641,18.936-9.758l0.135-0.115
			c6.595-5.638,11.333-12.153,15.914-18.454c2.018-2.773,4.102-5.641,6.314-8.385c6.464-8.018,13.849-15.639,20.99-23.009
			c12.447-12.848,25.32-26.133,34.447-42.488c2.229-3.998,4.121-8.091,5.952-12.05c3.741-8.092,7.275-15.735,13.269-21.938
			c3.668-3.794,6.311-7.867,8.868-11.805c0.739-1.138,1.483-2.286,2.264-3.441c0.608-0.905,1.446-1.857,2.331-2.865
			c2.6-2.959,5.833-6.639,5.863-12.152C266.552,82.465,265.78,78.691,265.033,75.042z"/>
		<path style="fill:#8B8B8B;" d="M264.428,74.05c-0.424-2.067-0.823-4.02-1.063-5.928c-0.587-4.668-0.878-9.27-1.185-14.142
			c-0.137-2.134-0.27-4.271-0.433-6.412c-0.19-2.513-0.341-5.047-0.491-7.582c-0.25-4.178-0.509-8.497-0.938-12.717
			c-0.134-1.316-0.109-2.814-0.084-4.398c0.054-3.297,0.113-7.033-1.247-10.642c-0.756-2.013-2.204-3.46-4.132-4.156
			c-0.052-0.025-0.104-0.051-0.156-0.076c-1.481-0.709-3.227-1.062-5.178-1.062c-5.038,0-11.05,2.416-15.028,4.013
			c-0.661,0.267-1.263,0.508-1.788,0.709c-3.649,1.394-7.287,2.829-10.927,4.265c-6.015,2.372-12.232,4.825-18.372,7.025
			c-10.22,3.657-19.421,7.391-27.346,11.093c-5.097,2.379-10.455,4.21-16.127,6.147c-4.266,1.458-8.679,2.966-12.945,4.724
			c-4.816,1.982-9.638,3.923-14.452,5.863c-3.147,1.268-6.291,2.533-9.43,3.809c-0.918-0.647-1.859-1.25-2.817-1.801
			c-7.027-4.049-15.611-5.941-25.338-5.563c0.065-0.444,0.135-0.93,0.207-1.451c2.362-16.457,5.019-20.817,6.835-21.579
			c2.464-1.034,3.916-3.718,3.45-6.38c-0.438-2.507-2.534-4.357-5.118-4.482c-0.394-0.019-0.688-0.036-0.913-0.05
			c-0.414-0.025-0.691-0.037-0.922-0.037c-0.932,0-1.554,0.159-2.275,0.345c-0.214,0.055-0.484,0.12-0.925,0.231
			c-1.941,0.492-3.364,2.123-3.684,4.041c-4.759,5.16-6.53,13.349-7.891,19.633c-0.23,1.066-0.445,2.063-0.657,2.946
			c-0.736,3.052-1.313,5.982-1.724,8.754c-7.822,2.079-15.288,5.871-20.516,10.484c-1.514,1.059-2.88,2.151-4.169,3.329
			c-8.929,8.141-12.823,18.504-10.843,28.351c-4.214,1.971-8.113,3.682-11.83,5.192c-1.241,0.504-2.611,1.012-4.063,1.548
			c-7.138,2.641-16.02,5.925-20.556,13.176c-2.416,3.868-3.5,7.719-3.411,12.122c0.057,2.728,0.807,5.184,1.647,7.438
			c0.356,1.874,0.803,3.691,1.238,5.453l0.3,1.223c0.648,2.66,0.507,5.709,0.357,8.937c-0.118,2.524-0.24,5.134,0,7.803
			c0.198,2.257,0.75,4.393,1.637,6.363l0.065,1.396c0.146,3.166,0.295,6.439,0.49,9.627c0.26,4.216,0.639,8.463,1.004,12.57
			c0.2,2.24,0.4,4.48,0.583,6.72c0.177,2.214,0.196,4.508,0.216,6.937c0.035,4.184,0.072,8.511,0.951,12.811
			c1.059,5.201,2.488,10.476,4.246,15.67c1.993,5.913,5.905,7.897,9.691,9.814l0.567,0.288c3.777,1.928,8.208,2.029,12.116,2.121
			c1.556,0.035,3.025,0.069,4.222,0.218l2.849,0.349c6.948,0.845,13.512,1.643,20.025,3.168c2.74,0.643,5.477,1.302,8.213,1.962
			c9.416,2.27,19.152,4.618,28.979,6.214l0.242,0.04c3.704,0.604,8.776,1.432,13.867,1.432c2.613,0,4.948-0.212,7.086-0.643
			c1.319,0.398,2.689,0.599,4.093,0.599h0.001c7.518,0,14.118-5.64,18.936-9.758l0.136-0.114
			c6.594-5.639,11.333-12.153,15.915-18.455c2.016-2.772,4.102-5.64,6.313-8.384c6.465-8.018,13.85-15.64,20.99-23.01
			c12.449-12.848,25.32-26.133,34.448-42.488c2.229-3.997,4.12-8.091,5.951-12.049c3.742-8.093,7.275-15.736,13.27-21.938
			c3.668-3.793,6.313-7.866,8.868-11.805c0.739-1.138,1.483-2.285,2.263-3.441c0.61-0.905,1.447-1.857,2.333-2.865
			c2.599-2.958,5.832-6.639,5.862-12.151C265.945,81.473,265.174,77.698,264.428,74.05z"/>
		<path style="fill:#7D7D7D;" d="M263.82,73.057c-0.423-2.066-0.822-4.02-1.063-5.927c-0.588-4.668-0.878-9.27-1.187-14.142
			c-0.135-2.135-0.269-4.271-0.431-6.412c-0.188-2.514-0.341-5.047-0.492-7.583c-0.25-4.178-0.508-8.497-0.938-12.716
			c-0.133-1.317-0.108-2.813-0.084-4.399c0.055-3.297,0.114-7.032-1.247-10.642c-0.757-2.012-2.204-3.459-4.132-4.155
			c-0.05-0.026-0.103-0.052-0.156-0.077c-1.481-0.708-3.226-1.061-5.177-1.061c-5.04,0-11.051,2.415-15.028,4.013
			c-0.662,0.266-1.264,0.508-1.789,0.708c-3.649,1.394-7.289,2.83-10.926,4.265c-6.015,2.373-12.233,4.825-18.372,7.026
			c-10.22,3.657-19.421,7.391-27.346,11.092c-5.099,2.379-10.455,4.21-16.128,6.148c-4.266,1.457-8.678,2.966-12.944,4.723
			c-4.815,1.981-9.638,3.924-14.453,5.863c-3.146,1.268-6.29,2.533-9.429,3.81c-0.918-0.648-1.86-1.251-2.817-1.801
			c-7.028-4.05-15.611-5.941-25.339-5.563c0.065-0.444,0.133-0.931,0.21-1.451c2.359-16.458,5.018-20.818,6.833-21.58
			c2.463-1.034,3.915-3.718,3.448-6.38c-0.438-2.506-2.533-4.356-5.117-4.481c-0.394-0.019-0.686-0.036-0.912-0.049
			c-0.414-0.025-0.692-0.038-0.923-0.038c-0.931,0-1.554,0.16-2.275,0.345c-0.213,0.055-0.484,0.12-0.925,0.232
			c-1.941,0.491-3.363,2.122-3.684,4.041c-4.759,5.159-6.53,13.348-7.891,19.632c-0.229,1.066-0.444,2.063-0.657,2.947
			c-0.736,3.051-1.313,5.981-1.725,8.753c-7.821,2.08-15.285,5.871-20.514,10.484c-1.514,1.061-2.881,2.151-4.17,3.329
			c-8.928,8.141-12.822,18.505-10.842,28.351c-4.214,1.972-8.113,3.682-11.83,5.193c-1.241,0.504-2.612,1.012-4.064,1.548
			c-7.138,2.64-16.021,5.924-20.556,13.175c-2.416,3.869-3.499,7.72-3.412,12.122c0.057,2.728,0.807,5.184,1.648,7.439
			c0.355,1.874,0.803,3.691,1.238,5.452l0.3,1.223c0.647,2.66,0.507,5.71,0.356,8.937c-0.118,2.524-0.239,5.135,0,7.803
			c0.199,2.258,0.75,4.394,1.638,6.364l0.064,1.396c0.146,3.165,0.296,6.439,0.491,9.627c0.259,4.215,0.638,8.463,1.004,12.57
			c0.199,2.24,0.4,4.48,0.582,6.72c0.178,2.214,0.197,4.507,0.216,6.936c0.036,4.186,0.072,8.512,0.952,12.812
			c1.06,5.202,2.488,10.477,4.246,15.67c1.993,5.914,5.906,7.898,9.69,9.814l0.565,0.288c3.779,1.928,8.21,2.03,12.117,2.121
			c1.558,0.036,3.026,0.07,4.221,0.218l2.85,0.349c6.949,0.845,13.512,1.643,20.026,3.169c2.74,0.642,5.476,1.301,8.212,1.962
			c9.417,2.27,19.152,4.617,28.979,6.214l0.242,0.039c3.704,0.605,8.774,1.432,13.867,1.432c2.612,0,4.948-0.211,7.087-0.642
			c1.318,0.398,2.688,0.599,4.091,0.599h0.002c7.517,0,14.117-5.641,18.936-9.758l0.135-0.115
			c6.595-5.638,11.333-12.153,15.915-18.454c2.017-2.773,4.102-5.641,6.313-8.385c6.464-8.018,13.85-15.64,20.989-23.009
			c12.449-12.848,25.321-26.133,34.448-42.488c2.23-3.998,4.121-8.091,5.952-12.05c3.741-8.093,7.275-15.736,13.268-21.938
			c3.668-3.794,6.313-7.867,8.869-11.805c0.737-1.138,1.482-2.286,2.263-3.441c0.609-0.906,1.446-1.857,2.332-2.866
			c2.6-2.958,5.834-6.638,5.864-12.151C265.338,80.479,264.566,76.706,263.82,73.057z"/>
		<path style="fill:#6E6E6E;" d="M263.213,72.064c-0.422-2.067-0.821-4.02-1.063-5.928c-0.587-4.668-0.877-9.27-1.185-14.142
			c-0.135-2.134-0.27-4.271-0.432-6.412c-0.19-2.513-0.341-5.047-0.492-7.583c-0.251-4.177-0.508-8.496-0.938-12.716
			c-0.134-1.316-0.107-2.814-0.083-4.399c0.053-3.296,0.112-7.032-1.249-10.642c-0.755-2.012-2.203-3.459-4.132-4.155
			c-0.05-0.025-0.102-0.051-0.154-0.076c-1.482-0.709-3.227-1.062-5.178-1.062c-5.039,0-11.053,2.416-15.028,4.013
			c-0.662,0.267-1.265,0.508-1.79,0.709c-3.648,1.392-7.286,2.829-10.926,4.265c-6.015,2.372-12.233,4.825-18.371,7.025
			c-10.221,3.657-19.421,7.391-27.345,11.093c-5.099,2.378-10.456,4.209-16.129,6.147c-4.266,1.458-8.679,2.966-12.944,4.723
			c-4.816,1.982-9.637,3.924-14.453,5.864c-3.146,1.267-6.291,2.533-9.428,3.808c-0.919-0.647-1.861-1.25-2.817-1.801
			c-7.03-4.05-15.613-5.941-25.34-5.563c0.065-0.444,0.135-0.93,0.21-1.451c2.358-16.458,5.017-20.817,6.833-21.579
			c2.462-1.035,3.913-3.719,3.449-6.38c-0.438-2.507-2.533-4.356-5.117-4.481c-0.393-0.02-0.687-0.036-0.913-0.05
			c-0.415-0.025-0.691-0.038-0.924-0.038c-0.931,0-1.553,0.16-2.275,0.346c-0.212,0.055-0.482,0.12-0.924,0.231
			c-1.942,0.491-3.363,2.123-3.684,4.041c-4.76,5.16-6.531,13.348-7.89,19.632c-0.23,1.067-0.446,2.063-0.659,2.947
			c-0.735,3.051-1.313,5.983-1.723,8.754c-7.823,2.079-15.286,5.871-20.516,10.484c-1.514,1.06-2.879,2.151-4.169,3.328
			C46.508,69.16,42.614,79.523,44.596,89.37c-4.216,1.971-8.113,3.682-11.832,5.192c-1.24,0.504-2.61,1.012-4.063,1.548
			c-7.138,2.64-16.019,5.924-20.555,13.176c-2.415,3.868-3.499,7.719-3.412,12.122c0.058,2.727,0.809,5.184,1.648,7.438
			c0.355,1.874,0.804,3.69,1.238,5.453l0.301,1.223c0.648,2.66,0.506,5.709,0.356,8.936c-0.116,2.524-0.238,5.133,0,7.803
			c0.2,2.257,0.75,4.394,1.638,6.363l0.064,1.395c0.146,3.166,0.298,6.44,0.492,9.627c0.258,4.216,0.638,8.463,1.005,12.57
			c0.198,2.239,0.399,4.48,0.581,6.72c0.179,2.214,0.197,4.507,0.217,6.936c0.035,4.185,0.07,8.511,0.951,12.812
			c1.059,5.201,2.488,10.476,4.245,15.67c1.995,5.913,5.906,7.896,9.69,9.814l0.567,0.288c3.777,1.928,8.208,2.029,12.117,2.119
			c1.557,0.037,3.025,0.071,4.222,0.22l2.848,0.348c6.949,0.846,13.511,1.642,20.026,3.169c2.74,0.642,5.478,1.302,8.212,1.962
			c9.417,2.27,19.152,4.618,28.979,6.214l0.243,0.04c3.704,0.605,8.776,1.432,13.866,1.432c2.614,0,4.949-0.213,7.087-0.643
			c1.319,0.397,2.688,0.599,4.092,0.599h0.001c7.518,0,14.117-5.64,18.938-9.758l0.133-0.114
			c6.596-5.639,11.333-12.153,15.916-18.455c2.016-2.772,4.101-5.64,6.313-8.384c6.464-8.017,13.85-15.641,20.99-23.01
			c12.448-12.848,25.32-26.133,34.447-42.488c2.23-3.997,4.122-8.091,5.951-12.049c3.742-8.093,7.277-15.736,13.27-21.938
			c3.669-3.794,6.312-7.867,8.869-11.805c0.739-1.138,1.482-2.285,2.262-3.441c0.611-0.905,1.448-1.857,2.334-2.865
			c2.598-2.958,5.833-6.639,5.863-12.151C264.732,79.487,263.959,75.713,263.213,72.064z"/>
		<path style="fill:#606060;" d="M262.607,71.071c-0.422-2.066-0.822-4.02-1.064-5.927c-0.585-4.668-0.876-9.271-1.185-14.142
			c-0.135-2.135-0.27-4.271-0.431-6.412c-0.189-2.514-0.341-5.047-0.492-7.583c-0.249-4.178-0.508-8.497-0.938-12.716
			c-0.133-1.317-0.108-2.813-0.083-4.399c0.053-3.297,0.112-7.032-1.248-10.642c-0.757-2.012-2.205-3.46-4.133-4.155
			c-0.05-0.026-0.102-0.052-0.155-0.077c-1.484-0.704-3.226-1.06-5.178-1.06c-5.038,0-11.051,2.415-15.028,4.012
			c-0.661,0.267-1.264,0.508-1.788,0.709c-3.65,1.394-7.287,2.829-10.927,4.265c-6.015,2.373-12.233,4.825-18.371,7.025
			c-10.221,3.658-19.421,7.391-27.346,11.093c-5.099,2.379-10.455,4.21-16.127,6.147c-4.267,1.458-8.68,2.967-12.945,4.724
			c-4.817,1.982-9.638,3.924-14.454,5.863c-3.146,1.268-6.291,2.533-9.428,3.81c-0.919-0.648-1.86-1.251-2.817-1.801
			c-7.028-4.05-15.611-5.941-25.339-5.563c0.065-0.444,0.134-0.931,0.209-1.451c2.359-16.458,5.018-20.818,6.834-21.58
			c2.464-1.034,3.915-3.718,3.448-6.38c-0.438-2.506-2.532-4.349-5.117-4.481c-0.394-0.018-0.687-0.036-0.913-0.049
			c-0.414-0.026-0.691-0.038-0.922-0.038c-0.932,0-1.554,0.16-2.275,0.345c-0.214,0.055-0.484,0.124-0.925,0.232
			c-1.938,0.507-3.364,2.122-3.684,4.041c-4.76,5.159-6.531,13.348-7.891,19.632c-0.229,1.066-0.445,2.063-0.658,2.947
			c-0.735,3.051-1.313,5.981-1.723,8.753C71.692,48.292,64.227,52.084,59,56.697c-1.515,1.061-2.881,2.151-4.169,3.329
			c-8.93,8.141-12.823,18.505-10.843,28.35c-4.215,1.972-8.113,3.682-11.83,5.193c-1.241,0.504-2.612,1.011-4.064,1.547
			c-7.138,2.641-16.02,5.925-20.556,13.176c-2.415,3.869-3.499,7.72-3.411,12.122c0.058,2.728,0.808,5.184,1.647,7.439
			c0.355,1.873,0.804,3.69,1.238,5.452l0.3,1.223c0.648,2.66,0.507,5.71,0.357,8.937c-0.117,2.524-0.238,5.135,0,7.803
			c0.2,2.258,0.75,4.394,1.638,6.364l0.064,1.395c0.146,3.166,0.297,6.441,0.492,9.628c0.258,4.215,0.637,8.463,1.004,12.569
			c0.2,2.241,0.399,4.481,0.581,6.721c0.179,2.214,0.197,4.507,0.218,6.936c0.034,4.184,0.07,8.511,0.95,12.811
			c1.06,5.202,2.489,10.476,4.246,15.67c1.994,5.914,5.906,7.897,9.69,9.814l0.566,0.288c3.779,1.928,8.209,2.03,12.117,2.121
			c1.557,0.036,3.026,0.07,4.222,0.218l2.849,0.349c6.948,0.845,13.512,1.643,20.025,3.169c2.741,0.642,5.477,1.301,8.213,1.961
			c9.416,2.271,19.153,4.618,28.979,6.215l0.243,0.039c3.703,0.604,8.775,1.432,13.867,1.432c2.613,0,4.948-0.211,7.086-0.643
			c1.318,0.398,2.688,0.599,4.093,0.599h0.001c7.517,0,14.116-5.64,18.935-9.758l0.135-0.114
			c6.595-5.638,11.333-12.153,15.915-18.454c2.017-2.773,4.102-5.641,6.314-8.385c6.464-8.018,13.849-15.64,20.99-23.009
			c12.448-12.848,25.32-26.134,34.447-42.489c2.229-3.997,4.121-8.09,5.951-12.049c3.741-8.093,7.276-15.736,13.269-21.938
			c3.668-3.794,6.312-7.867,8.868-11.805c0.738-1.138,1.483-2.286,2.264-3.441c0.609-0.906,1.446-1.858,2.332-2.866
			c2.599-2.958,5.833-6.638,5.863-12.151C264.125,78.494,263.353,74.72,262.607,71.071z"/>
	</g>
	<path style="fill:#FFFFFF;" d="M262.607,71.071c-0.422-2.066-0.822-4.02-1.064-5.927c-0.585-4.668-0.876-9.271-1.185-14.142
		c-0.135-2.135-0.27-4.271-0.431-6.412c-0.189-2.514-0.341-5.047-0.492-7.583c-0.249-4.178-0.508-8.497-0.938-12.716
		c-0.133-1.317-0.108-2.813-0.083-4.399c0.053-3.297,0.112-7.032-1.248-10.642c-0.757-2.012-2.205-3.46-4.133-4.155
		c-0.05-0.026-0.102-0.052-0.155-0.077c-1.484-0.704-3.226-1.06-5.178-1.06c-5.038,0-11.051,2.415-15.028,4.012
		c-0.661,0.267-1.264,0.508-1.788,0.709c-3.65,1.394-7.287,2.829-10.927,4.265c-6.015,2.373-12.233,4.825-18.371,7.025
		c-10.221,3.658-19.421,7.391-27.346,11.093c-5.099,2.379-10.455,4.21-16.127,6.147c-4.267,1.458-8.68,2.967-12.945,4.724
		c-4.817,1.982-9.638,3.924-14.454,5.863c-3.146,1.268-6.291,2.533-9.428,3.81c-0.919-0.648-1.86-1.251-2.817-1.801
		c-7.028-4.05-15.611-5.941-25.339-5.563c0.065-0.444,0.134-0.931,0.209-1.451c2.359-16.458,5.018-20.818,6.834-21.58
		c2.464-1.034,3.915-3.718,3.448-6.38c-0.438-2.506-2.532-4.349-5.117-4.481c-0.394-0.018-0.687-0.036-0.913-0.049
		c-0.414-0.026-0.691-0.038-0.922-0.038c-0.932,0-1.554,0.16-2.275,0.345c-0.214,0.055-0.484,0.124-0.925,0.232
		c-1.938,0.507-3.364,2.122-3.684,4.041c-4.76,5.159-6.531,13.348-7.891,19.632c-0.229,1.066-0.445,2.063-0.658,2.947
		c-0.735,3.051-1.313,5.981-1.723,8.753C71.692,48.292,64.227,52.084,59,56.697c-1.515,1.061-2.881,2.151-4.169,3.329
		c-8.93,8.141-12.823,18.505-10.843,28.35c-4.215,1.972-8.113,3.682-11.83,5.193c-1.241,0.504-2.612,1.011-4.064,1.547
		c-7.138,2.641-16.02,5.925-20.556,13.176c-2.415,3.869-3.499,7.72-3.411,12.122c0.058,2.728,0.808,5.184,1.647,7.439
		c0.355,1.873,0.804,3.69,1.238,5.452l0.3,1.223c0.648,2.66,0.507,5.71,0.357,8.937c-0.117,2.524-0.238,5.135,0,7.803
		c0.2,2.258,0.75,4.394,1.638,6.364l0.064,1.395c0.146,3.166,0.297,6.441,0.492,9.628c0.258,4.215,0.637,8.463,1.004,12.569
		c0.2,2.241,0.399,4.481,0.581,6.721c0.179,2.214,0.197,4.507,0.218,6.936c0.034,4.184,0.07,8.511,0.95,12.811
		c1.06,5.202,2.489,10.476,4.246,15.67c1.994,5.914,5.906,7.897,9.69,9.814l0.566,0.288c3.779,1.928,8.209,2.03,12.117,2.121
		c1.557,0.036,3.026,0.07,4.222,0.218l2.849,0.349c6.948,0.845,13.512,1.643,20.025,3.169c2.741,0.642,5.477,1.301,8.213,1.961
		c9.416,2.271,19.153,4.618,28.979,6.215l0.243,0.039c3.703,0.604,8.775,1.432,13.867,1.432c2.613,0,4.948-0.211,7.086-0.643
		c1.318,0.398,2.688,0.599,4.093,0.599h0.001c7.517,0,14.116-5.64,18.935-9.758l0.135-0.114
		c6.595-5.638,11.333-12.153,15.915-18.454c2.017-2.773,4.102-5.641,6.314-8.385c6.464-8.018,13.849-15.64,20.99-23.009
		c12.448-12.848,25.32-26.134,34.447-42.489c2.229-3.997,4.121-8.09,5.951-12.049c3.741-8.093,7.276-15.736,13.269-21.938
		c3.668-3.794,6.312-7.867,8.868-11.805c0.738-1.138,1.483-2.286,2.264-3.441c0.609-0.906,1.446-1.858,2.332-2.866
		c2.599-2.958,5.833-6.638,5.863-12.151C264.125,78.494,263.353,74.72,262.607,71.071z"/>
	<g>
		<path d="M256.732,65.75c-0.871-6.934-1.117-13.844-1.641-20.796c-0.504-6.695-0.742-13.537-1.418-20.175
			c-0.451-4.465,0.569-9.539-1.047-13.823c-0.291-0.776-0.795-1.222-1.566-1.394c-0.087-0.055-0.163-0.116-0.26-0.162
			c-4.558-2.161-13.877,2.164-18.185,3.81c-9.802,3.743-19.523,7.787-29.395,11.326c-9.011,3.225-18.254,6.867-26.93,10.921
			c-9.376,4.374-19.695,7.015-29.277,10.961C127.362,54.504,107.615,61.9,88.521,71.28c-18.224,8.951-35.744,19.145-54.536,26.782
			c-7.261,2.952-17.869,5.665-22.332,12.8c-1.876,3.004-2.747,5.909-2.676,9.452c0.045,2.179,0.722,4.218,1.489,6.233
			c0.414,2.301,1.014,4.59,1.559,6.833c1.376,5.642-0.038,11.72,0.476,17.46c0.182,2.054,0.747,3.945,1.606,5.57
			c0.188,4.017,0.358,8.015,0.598,11.946c0.395,6.404,1.062,12.801,1.579,19.197c0.508,6.292-0.182,12.975,1.087,19.17
			c1.039,5.103,2.417,10.148,4.089,15.088c1.436,4.257,4.134,5.43,7.864,7.332c4.116,2.099,10.259,1.294,14.73,1.846
			c7.837,0.97,15.683,1.804,23.387,3.608c12.256,2.873,24.426,6.09,36.864,8.111c5.587,0.91,14.046,2.331,20.726,0.566
			c6.929,3.081,14.483-3.451,19.702-7.911c8.979-7.677,14.317-17.154,21.604-26.197c17.799-22.074,40.962-39.697,54.978-64.816
			c6.649-11.925,10.293-24.981,19.971-34.994c4.345-4.496,7.157-9.488,10.595-14.586c2.652-3.938,7.341-7.078,7.369-12.342
			C259.286,76.865,257.43,71.287,256.732,65.75z"/>
		<path style="fill:#FFFFF0;" d="M16.289,148.182c-0.54-3.946-0.286-7.917-0.975-11.851c-0.325-1.847-0.945-3.601-1.65-5.33
			c-0.482-6.243-3.413-12.371,1.162-18.325c3.09-4.017,9.089-5.856,13.489-7.982c4.693-2.263,9.783-3.692,14.411-6.104
			c8.929-4.655,17.518-9.927,26.477-14.496c9.633-4.925,19.891-8.814,30.033-12.56c19.627-7.247,39.951-12.739,58.929-21.664
			c18.042-8.497,35.679-17.995,54.286-25.235c9.507-3.692,19.061-7.869,28.988-10.29c1.895-0.462,3.902-0.813,5.877-0.949
			c0.043,0.053,0.073,0.104,0.126,0.156c-1.02,0.448-2.071,1.501-2.788,2.143c0.302,0.697,0.251,1.62,0.083,2.244
			c-0.978,3.692-5.42,6.822-8.154,9.146c-5.351,4.55-9.692,10.289-14.106,15.718c-1.053,1.292-2.104,2.587-3.16,3.871
			c2.541-2.401,5.094-4.795,7.698-7.129c2.137-1.917,14.23-11.631,20.912-19.637c-0.034,1.911-0.078,3.68-0.08,4.244
			c-0.024,2.478,0.002,4.941,0.064,7.404c-0.47,0.962-1.024,1.885-1.7,2.733c-1.524,1.915-2.859-0.347-4.534-0.01
			c-6.673,1.333-10.188,11.725-12.522,17.044c-2.274,5.183-5.163,9.967-7.597,15.05c-1.301,2.717-4.355,7.274-8.602,4.388
			c-1.493-1.017-3.063-1.872-4.913-1.995c-6.675-0.439-10.309,8.463-12.836,13.156c-5.464,10.134-7.791,21.173-14.52,30.715
			c-2.869,4.066-5.902-0.951-9.569-0.22c-2.655,0.532-3.824,2.492-5.076,4.667c-0.969,1.684-1.609,3.685-2.468,5.438
			c-1.881,3.856-5.482,5.561-9.205,7.094c-3.221,1.326-4.916,3.02-6.645,5.923c-0.446,0.754-0.854,1.569-1.24,2.412
			c-0.868,2.781-0.951,6.014-1.438,8.794c-0.654,3.713-1.401,7.548-3.234,10.89c-1.216,2.21-3.148,3.866-5.766,3.775
			c-2.14-0.071-3.408-1.586-4.841-2.957c-1.201-1.145-2.951-2.168-4.601-1.811c-4.52,2.278-5.92,9.292-8.021,13.336
			c-5.455,10.473-18.42-9.296-24.49-10.577c-7.474-1.572-11.755,5.227-14.78,11.012c-2.161,4.128-4.668,8.002-8.333,10.948
			c-8.139,6.522-16.511-3.888-19.367-10.439c-2.604-5.969-5.934-17.923-13.181-20.102c-2.424-0.728-3.473-0.271-5.506,1.185
			c-2.611,1.865-4.808,3.92-7.608,5.583C19.146,161.253,16.765,151.679,16.289,148.182z"/>
		<path style="opacity:0.6;fill:#D6A47E;" d="M247.927,19.908c-6.682,8.006-18.775,17.72-20.912,19.637
			c-2.604,2.334-5.157,4.728-7.698,7.129c1.056-1.284,2.107-2.579,3.16-3.871c4.414-5.429,8.755-11.168,14.106-15.718
			c2.734-2.324,7.177-5.454,8.154-9.146c0.168-0.624,0.219-1.547-0.083-2.244c0.717-0.643,1.768-1.695,2.788-2.143
			c-0.053-0.053-0.083-0.104-0.126-0.156c-1.975,0.136-3.982,0.487-5.877,0.949c-4.67,1.138-9.247,2.678-13.781,4.361
			c2.037,0.01,4.084,0.084,6.148,0.24c2.547,0.191,3.837,3.017,2.059,4.973c-10.507,11.552-24.074,19.709-34.13,31.735
			c-10.983,13.138-20.087,27.75-31.939,40.173c-15.463,16.206-31.698,38.17-56.36,34.895c-2.135-0.286-4.344-3.182-2.062-4.974
			c5.784-4.54,13.753-4.328,19.34-8.984c-0.176-0.636-0.179-1.338,0.176-2.075c3.575-7.415,8.044-14.42,11.502-21.852
			c2.393-5.149,0.02-9.55-0.013-14.802c-0.022-3.816,0.547-7.249,1.725-10.879c1.793-5.509-1.911-7.421-6.314-8.954
			c-12.777,4.648-25.811,8.625-38.554,13.331c-10.142,3.746-20.4,7.636-30.033,12.56c-5.693,2.905-11.239,6.085-16.815,9.218
			c1.408,1.501,1.864,3.893,0.587,7.108c-1.699,4.271-3.074,7.42-2.721,12.127c0.154,2.034-0.291,4.501-2.74,4.867
			c-3.929,0.589-8.682-1.885-12.587-2.287c-5.323-0.544-10.519-1.131-15.043-4.22c-0.597-0.409-0.99-0.954-1.215-1.559
			c-1.482,0.939-2.829,2.007-3.843,3.327c-4.575,5.954-1.644,12.082-1.162,18.325c0.705,1.729,1.325,3.483,1.65,5.33
			c0.688,3.934,0.434,7.904,0.975,11.851c0.476,3.497,2.857,13.071,9.027,9.405c2.801-1.663,4.997-3.718,7.608-5.583
			c2.033-1.456,3.082-1.912,5.506-1.185c7.247,2.179,10.576,14.133,13.181,20.102c2.856,6.552,11.229,16.962,19.367,10.439
			c3.665-2.946,6.172-6.82,8.333-10.948c3.025-5.784,7.307-12.584,14.78-11.012c6.07,1.281,19.035,21.05,24.49,10.577
			c2.102-4.044,3.502-11.058,8.021-13.336c1.649-0.357,3.399,0.666,4.601,1.811c1.433,1.371,2.701,2.886,4.841,2.957
			c2.617,0.091,4.55-1.565,5.766-3.775c1.833-3.342,2.58-7.177,3.234-10.89c0.487-2.78,0.57-6.013,1.438-8.794
			c0.387-0.843,0.794-1.658,1.24-2.412c1.729-2.902,3.424-4.597,6.645-5.923c3.724-1.533,7.324-3.237,9.205-7.094
			c0.858-1.753,1.499-3.754,2.468-5.438c1.252-2.175,2.421-4.135,5.076-4.667c3.667-0.731,6.7,4.286,9.569,0.22
			c6.729-9.542,9.056-20.581,14.52-30.715c2.527-4.693,6.161-13.596,12.836-13.156c1.851,0.123,3.42,0.979,4.913,1.995
			c4.247,2.887,7.301-1.671,8.602-4.388c2.434-5.083,5.322-9.867,7.597-15.05c2.334-5.319,5.85-15.711,12.522-17.044
			c1.675-0.337,3.01,1.925,4.534,0.01c0.676-0.848,1.23-1.771,1.7-2.733c-0.062-2.464-0.088-4.927-0.064-7.404
			C247.849,23.588,247.893,21.819,247.927,19.908z M138.985,141.344c-0.939,3.866-1.275,7.777-2.216,11.648
			c-0.459,1.892-2.665,2.596-4.281,1.739c-6.854-3.645-11.97-3.735-15.357,3.39c-0.792,1.671-2.244,4.063-4.449,3.974
			c-3.464-0.132-6.813-1.448-9.351-3.974c-3.454-3.446-8.652-10.908-15.183-6.085c-4.234,3.126-7.01,7.226-10.099,11.385
			c-5.073,6.848-11.616,13.122-19.892,7.883c-13.084-8.289-9.232-38.347-31.449-22.674c-0.993,0.703-2.749,0.475-3.533-0.456
			c-4.28-5.069-9.908-18.386-6.328-25.471c-3.104-0.931-1.562-5.997,1.952-5.471c16.712,2.489,33.014,10.611,49.652,14.373
			c22.021,4.979,44.365,9.491,66.952,6.149C137.571,137.436,139.557,138.997,138.985,141.344z"/>
		<path style="fill:#FBCC86;" d="M127.172,190.818c-1.343,11.018,0.062,21.36,0.385,32.355c0.033,1.239-0.018,2.317-0.139,3.285
			c0.158,0.736,0.302,1.469,0.42,2.205c0.559,3.418,0.549,7.475-3.003,9.204c-2.114,1.023-4.85,0.78-7.08,0.406
			c-4.42-0.738-8.841-1.135-13.296-1.557c-5.898-0.566-12.107-1.255-17.451-3.868c-8.367-0.852-16.677-2.21-24.994-3.555
			c-5.671-0.918-11.376-1.538-17.093-2.025c-5.268-0.449-11.074-0.399-15.783-2.976c-4.752-2.592-3.481-9.808-4.97-14.368
			c-1.754-5.367-1.974-10.853-2.256-16.442c-0.565-11.084-2.757-22.082-4.267-33.061c2.355,1.57,5.366,2.066,8.738,0.949
			c4.656-1.542,8.388-12.486,14.493-7.654c5.237,4.146,6.79,12.171,8.568,18.215c2.562,8.692,7.674,15.859,17.256,16.849
			c7.904,0.815,15.559-8.52,18.637-14.71c0.959-1.928,1.881-3.862,3.08-5.656c2.688-4.033,6.654-1.616,9.544,0.51
			c3.831,2.821,6.902,6.186,11.395,8.004c6.026,2.43,10.979-1.678,13.563-6.678c0.448-0.864,4.574-9.855,5.021-8.685
			c0.628,1.639,0.857,3.367,1.768,4.764c-0.029,0.183-0.055,0.366-0.084,0.551c-0.945,2.148-1.003,4.424-0.383,6.621
			C129.22,179.419,127.893,184.903,127.172,190.818z"/>
		<path style="opacity:0.6;fill:#D6A47E;" d="M129.709,166.329c-0.91-1.396-1.14-3.125-1.768-4.764
			c-0.447-1.17-4.573,7.82-5.021,8.685c-2.585,5-7.537,9.107-13.563,6.678c-4.492-1.818-7.563-5.183-11.395-8.004
			c-0.546-0.398-1.137-0.799-1.745-1.181c0.012,0.188,0.056,0.368,0.056,0.557c0,4.102-3.423,7.521-7.523,7.521h-0.83
			c-1.116,0-2.165-0.271-3.128-0.722c-3.367,6.144-10.61,14.451-18.09,13.681c-7.781-0.803-12.575-5.704-15.491-12.166
			c-1.687,0.403-3.458,0.433-5.142-0.032c-2.577-0.709-4.813-2.431-6.166-4.739c-1.518-2.593-1.491-5.09-1.036-7.95
			c0.423-2.667,2.379-5.362,4.816-7.092c-0.806-1.153-1.713-2.217-2.806-3.084c-6.105-4.832-9.837,6.112-14.493,7.654
			c-3.372,1.117-6.383,0.621-8.738-0.949c1.219,8.873,2.844,17.756,3.734,26.684h2.471c5.623,0,10.315,4.694,10.315,10.316
			c0,5.622-4.692,10.316-10.315,10.316h-0.253c0.188,0.729,0.33,1.463,0.57,2.188c1.488,4.561,0.218,11.776,4.97,14.368
			c3.097,1.691,6.674,2.247,10.254,2.559v-0.308c0-3.323,2.771-6.092,6.093-6.092c3.321,0,6.093,2.769,6.093,6.092v1.388
			c3.487,0.373,6.969,0.803,10.436,1.362c8.317,1.345,16.627,2.703,24.994,3.555c5.344,2.613,11.553,3.302,17.451,3.868
			c4.455,0.422,8.876,0.818,13.296,1.557c2.23,0.374,4.966,0.617,7.08-0.406c3.552-1.729,3.562-5.786,3.003-9.204
			c-0.118-0.736-0.262-1.469-0.42-2.205c0.121-0.968,0.172-2.046,0.139-3.285c-0.125-4.274-0.414-8.447-0.638-12.601
			c-0.259,0.081-0.509,0.174-0.771,0.214c-3.279,0.483-6.533-0.767-7.492-4.258c-0.8-2.902,0.966-7.007,4.255-7.495
			c0.126-0.02,0.188-0.02,0.257-0.023c0.713-0.341,1.453-0.692,2.239-0.809c0.42-0.058,0.836-0.091,1.252-0.098
			c0.066-2.404,0.214-4.829,0.514-7.286c0.721-5.915,2.048-11.4,2.07-17.317c-0.62-2.197-0.563-4.473,0.383-6.621
			C129.654,166.695,129.68,166.512,129.709,166.329z M76.074,211.373c-1.354,1.156-2.701,2.001-4.166,2.925
			c0.324-0.254,0.65-0.504,0.975-0.755c-4.226,3.146-9.901,3.491-13.891-0.507c-3.738-3.738-4.285-10.94,0-14.586
			c1.354-1.157,2.699-2.004,4.166-2.926c-0.325,0.254-0.65,0.504-0.975,0.755c4.226-3.147,9.899-3.492,13.891,0.506
			C79.813,200.523,80.358,207.726,76.074,211.373z M97.16,188.374c-0.162-1.905,0.951-3.943,1.737-5.565
			c1.214-2.495,3.976-3.71,6.667-3.649c1.541-0.131,3.115,0.166,4.456,0.952c3.646,2.136,4.614,6.664,2.696,10.291
			c-1.931,3.652-5.583,6.584-9.977,5.376C99.231,194.815,97.453,191.822,97.16,188.374z M114.69,226.693
			c-2.127,2.126-5.497,2.296-7.871,0.599c-2.409-0.818-4.192-3.063-4.192-5.74c0-3.296,2.771-6.13,6.093-6.091
			c2.435,0.025,4.261,0.923,5.971,2.613C117.05,220.41,117.031,224.354,114.69,226.693z"/>
		<path style="fill:#FBCC86;" d="M255.01,83.708c-0.651,3.918-3.082,6.729-5.902,9.389c-8.528,8.035-16.188,17.883-22.644,27.649
			c-1.055,1.589-2.085,3.183-3.121,4.78c-0.887,2.017-1.745,4.027-2.604,5.981c-10.293,23.355-28.283,41.349-45.49,59.777
			c-7.597,8.136-15.453,15.745-21.309,25.311c-3.26,5.32-7.785,9.675-12.265,13.998c-2.27,2.185-4.738,4.134-7.257,6.02
			c-0.451,0.345-0.883,0.716-1.307,1.086c0.211-0.337,0.439-0.663,0.622-1.033c1.963-3.999-0.008-8.757-0.71-12.819
			c-1.362-7.886-3.412-15.388-3.675-23.467c-0.238-7.297,1.65-14.461,2.752-21.607c0.158-1.053,0.216-2.093,0.216-3.133
			c0.122-0.16,0.22-0.325,0.271-0.469c0.624-1.852,0.603-3.529,0.494-5.473c-0.055-1.073,0.355-1.963,0.923-2.785
			c0.326-0.316,0.612-0.685,0.822-1.08c0.375-0.459,0.746-0.919,1.066-1.394c2.736,0.729,6.071-0.662,8.242-3.405
			c2.427-3.069,1.827-8.398,2.637-11.941c1.616-7.085,2.947-14.328,10.047-17.513c3.927-1.762,6.743-4.107,9.132-7.703
			c0.956-1.43,3.319-7.755,5.804-6.813c1.924,0.729,3.538,2.029,5.671,2.166c3.393,0.228,4.686-2.412,6.139-4.946
			c3.473-6.064,5.15-12.202,7.628-18.667c2.386-6.214,5.156-12.184,8.843-17.742c3.14-4.727,6.925-5.091,11.693-2.283
			c0.931,0.551,2.405,1.021,3.526,0.807c3.719-0.708,5.84-2.521,7.751-5.747c3.449-5.823,6.286-12.072,9.307-18.135
			c1.273-2.562,5.841-14.23,9.763-12.521c0.923,0.407,1.833,0.602,2.695,0.584c1.264-1.207,2.739-2.09,4.607-2.475
			c0.218-0.045,0.527,0.007,0.573,0.286c1.789,11.038,1.17,22.199,3.627,33.166C254.434,75.383,255.665,79.751,255.01,83.708z"/>
		<g>
			<path d="M104.286,138.25c-14.958-4.695-30.139-8.934-45.402-12.502c-6.913-1.618-13.836-3.186-20.838-4.368
				c-5.909-1.002-15.457-0.91-20.518-4.42c-0.267-0.182-0.563,0.222-0.36,0.449c3.016,3.353,8.581,4.66,12.818,5.653
				c8.094,1.896,16.144,4.34,24.207,6.404c16.295,4.167,32.629,8.541,49.281,11.045C104.585,140.68,105.529,138.639,104.286,138.25z
				"/>
			<path d="M134.463,133.426c-3.561,3.067-7.686,8.287-12.881,6.884c-0.167-0.045-0.357,0.186-0.205,0.318
				c2.147,1.887,4.416,2.341,7.016,1.235c3.089-1.313,6.013-4.28,7.73-7.09C136.796,133.67,135.404,132.616,134.463,133.426z"/>
			<path d="M188.399,72.36c-15.121,14.593-29.803,30.26-41.61,47.642c-0.109,0.162-0.021,0.441,0.212,0.325
				c2.08-1.021,3.699-3.335,5.32-4.96c4.059-4.063,7.707-8.603,11.643-12.799c8.771-9.336,18.016-18.455,25.904-28.564
				C190.717,72.926,189.52,71.28,188.399,72.36z"/>
		</g>
		<g>
			<path d="M116.049,54.006c-9.191-5.295-20.61-5.806-30.871-4.072c-7.759,1.31-16.924,4.966-23.171,10.579
				c-1.326,0.916-2.636,1.935-3.908,3.097c-7.486,6.826-12.101,16.76-8.534,26.767c3.524,9.896,18.238,15.967,27.537,18.129
				c11.691,2.715,24.228,1.199,34.709-4.527c10.416-5.688,16.4-14.197,18.306-25.758C131.77,68.164,124.271,58.744,116.049,54.006z"
				/>
			<path style="fill:#D32315;" d="M110.65,99.889c-16.917,9.357-37.976,4.506-52.755-6.393c-10.42-7.681-6.331-19.911,0.8-28.078
				c0.146-0.011,0.306-0.076,0.449-0.229c11.098-11.752,34.129-15.451,49.175-10.479c8.991,2.972,16.021,8.743,18.768,18.036
				C130.554,84.471,119.686,94.892,110.65,99.889z"/>
			<path style="fill:#8D1816;" d="M127.087,72.747c-1.331-4.493-3.673-8.146-6.74-11.073c-0.445,0.987-0.94,1.931-1.507,2.769
				c-0.841,1.258-2.399,3.146-4.18,2.497c-1.411-0.515-2.065-1.735-2.456-3.076c-0.168-0.08-0.343-0.174-0.501-0.338
				c-6.611-6.659-22.7-5.135-30.98-2.376c-2.491,0.829-5.093,1.69-7.313,3.137c-5.12,3.335,2.983,4.07,5.077,4.167
				c6.891,0.325,13.677-0.441,20.528-1.111c2.478-0.24,12.532-1.613,10.683,3.917c-1.407,4.208-9.74,6.828-13.76,7.959
				c-11.396,3.222-26.565,5.831-38.104,1.976c-2.823-0.942-4.653-2.209-5.726-3.678c-1.366,5.742-0.152,11.603,5.788,15.98
				c14.779,10.898,35.838,15.75,52.755,6.393C119.686,94.892,130.554,84.471,127.087,72.747z"/>
			<path d="M101.126,63.269c-2.145,0.811-7.604,2.286-13.202,2.994c-1.032-7.601-0.783-14.831,0.372-22.485
				c0.997-6.65,2.958-24.087,10-27.038c0.62-0.261,0.871-1.499-0.016-1.544c-2.309-0.107-1.365-0.202-3.585,0.337
				c-0.127,0.033-0.196,0.248-0.028,0.274c0.382,0.123,0.759,0.245,1.142,0.364c-6.644,3.855-8.299,15.965-9.856,22.428
				c-1.926,7.976-3.849,19.631-0.614,27.934c-6.828,0.537-13.124-0.405-13.038-5.47c0.007-0.391-0.507-0.324-0.626-0.046
				c-2.197,5.053,2.435,8.274,7.185,8.972c7.789,1.144,16.158-0.222,22.977-4.219C103.224,64.956,102.996,62.563,101.126,63.269z"/>
		</g>
		<g>
			<path d="M128.916,86.111c-6.077-1.55-11.963-0.299-16.706,3.286c-0.767,0.585-2.04,1.756-2.567,2.899
				c-2.473-0.874-4.996-1.619-7.637-2.073c-5.602-0.96-9.463,1.319-12.557,4.621c-2.926-1.728-5.957-3.022-9.667-3.334
				c-3.421-0.286-6.442,0.92-8.208,2.912c-7.676-5.721-16.496-0.625-19.724,6.939c-3.364,7.884,1.458,17.43,10.183,20.079
				c1.382,2.106,3.282,3.9,5.589,5.073c12.124,6.167,29.346,2.535,39.489-5.177c1.014,0.23,2,0.383,2.918,0.458
				c7.801,0.608,20.721-4.458,22.479-11.944c0.091-0.387-0.133-0.634-0.439-0.709c2.674-3.189,4.797-6.783,4.912-10.78
				C137.141,92.745,135.436,87.779,128.916,86.111z"/>
			<path style="fill:#FFFFFF;" d="M127.062,113.21c-4.453,3.185-9.794,4.517-16.019,4.556c-4.995,0.032-16.014-3.637-17.043-9.074
				c-0.033-0.188-0.336-0.071-0.361,0.066c-0.861,5.388,4.537,9.531,10.199,11.608c-8.241,3.367-16.647,5.408-25.9,4.191
				c-4.492-0.583-8.783-1.815-11.824-4.979c-4.296-4.449-5.137-12.63,0.468-16.602c0.126-0.092,0.058-0.318-0.125-0.234
				c-6.646,2.957-8.111,9.565-6.109,15.282c-3.894-2.844-6.101-7.255-6.631-11.847c-1.011-8.668,8.819-15.303,17.5-11.32
				c-1.368,1.816-1.752,4.186-0.582,6.676c0.12,0.247,0.5,0.085,0.487-0.143c-0.507-7.366,8.074-6.13,11.908-4.646
				c1.223,0.472,2.404,1.044,3.575,1.636c-0.071,0.101-0.146,0.201-0.214,0.299c-0.11,0.153,0.046,0.383,0.224,0.227
				c0.131-0.11,0.253-0.214,0.382-0.324c1.998,1.04,3.941,2.185,5.854,3.302c4.627,2.711,9.899,3.985,15.374,3.456
				c0.808-0.082,1.49-1.577,0.446-1.772c-6.327-1.163-11.198-3.458-16.338-6.894c-0.523-0.348-1.043-0.688-1.566-1.021
				c0.634-0.412,1.294-0.803,2.02-1.154c4.845-2.344,11.059,0.392,15.449,2.263c6.063,2.581,10.961,4.96,17.813,3.724
				c0.841-0.155,1.596-1.571,0.475-1.881c-5.497-1.504-10.58-3.981-15.858-5.938c1.438-1.726,6.324-3.074,7.061-3.243
				c4.273-0.987,10.899-0.396,13.838,2.84C138.183,99.558,131.455,106.888,127.062,113.21z"/>
			<path style="fill:#DDDAD7;" d="M133.354,94.835c0.087,0.348,0.195,0.686,0.266,1.051c0.309,1.524-1.095,2.463-2.441,1.878
				c-6.214-2.705-11.003-5.987-17.486-5.409c3.608,2.471,8.193,3.459,11.751,5.91c0.363,0.106,0.714,0.24,1.078,0.341
				c0.533,0.146,0.624,0.549,0.497,0.942c0.684,0.638,1.323,1.336,1.858,2.182c0.846,1.33-0.535,2.693-1.877,2.443
				c-7.516-1.404-15.265-2.582-22.415-5.366c-3.905-1.517-7.601-3.429-11.546-4.397c-0.083,0.04-0.174,0.053-0.254,0.091
				c-0.622,0.301-1.181,0.641-1.729,0.989c0.349,0.378,0.713,0.721,1.08,1.059c0.065,0.042,0.13,0.085,0.195,0.127
				c2.963,1.979,5.865,3.536,8.98,4.762c7.222,2.054,15.572,1.985,22.807,5.103c1.332,0.572,0.927,2.756-0.396,3.042
				c-7.282,1.567-14.376,0.865-21.617-0.631c-5.613-1.163-10.826-3.609-16.306-5.108c2.112,3.133,4.283,6.214,6.624,9.197
				c1.068,1.366-0.319,3.771-2.017,2.614c-4.146-2.828-8.509-5.21-12.22-8.542c-0.984,3.497,0.163,6.501,3.497,8.997
				c1.232,0.949,0.97,3.098-0.838,3.102c-11.863,0.024-17.382-10.845-12.699-20.614c-4.539,0.12-8.09,3.173-10.41,6.891
				c-0.693,1.111-2.795,1.111-3.039-0.396c-0.244-1.477-0.309-2.821-0.234-4.101c-0.66,1.581-0.961,3.333-0.747,5.19
				c0.53,4.592,2.736,9.003,6.631,11.847c-2.002-5.717-0.536-12.325,6.109-15.282c0.183-0.084,0.251,0.142,0.125,0.234
				c-5.604,3.972-4.764,12.152-0.468,16.602c3.041,3.163,7.332,4.396,11.824,4.979c9.253,1.217,17.659-0.824,25.9-4.191
				c-5.662-2.077-11.061-6.221-10.199-11.608c0.025-0.138,0.328-0.255,0.361-0.066c1.029,5.438,12.048,9.106,17.043,9.074
				c6.225-0.039,11.565-1.371,16.019-4.556C130.941,107.632,136.619,101.265,133.354,94.835z"/>
		</g>
	</g>
</g>
</svg>
