<svg width="20" height="21" viewBox="0 0 20 21" fill="none" xmlns="http://www.w3.org/2000/svg">
<path d="M9 7.32532L12 10.3253L9 13.3253M1 10.3253C1 11.5072 1.23279 12.6775 1.68508 13.7695C2.13738 14.8614 2.80031 15.8536 3.63604 16.6893C4.47177 17.525 5.46392 18.1879 6.55585 18.6402C7.64778 19.0925 8.8181 19.3253 10 19.3253C11.1819 19.3253 12.3522 19.0925 13.4442 18.6402C14.5361 18.1879 15.5282 17.525 16.364 16.6893C17.1997 15.8536 17.8626 14.8614 18.3149 13.7695C18.7672 12.6775 19 11.5072 19 10.3253C19 7.93837 18.0518 5.64918 16.364 3.96136C14.6761 2.27353 12.3869 1.32532 10 1.32532C7.61305 1.32532 5.32387 2.27353 3.63604 3.96136C1.94821 5.64918 1 7.93837 1 10.3253Z" stroke="#354052" stroke-width="2" stroke-linecap="round" stroke-linejoin="round"/>
</svg>
